<svg width="29" height="30" viewBox="0 0 29 30" fill="none" xmlns="http://www.w3.org/2000/svg">
<g clip-path="url(#clip0_293_2448)">
<path d="M28.6789 6.40107C28.5138 6.16443 28.2481 6.01815 27.9595 6.00582L10.0664 5.23455C9.55304 5.21209 9.12403 5.60844 9.10208 6.11943C9.08026 6.63024 9.47597 7.06183 9.9869 7.08378L26.6686 7.80289L23.3886 18.0366H8.79236L6.15533 3.67819C6.09736 3.3635 5.88131 3.10097 5.58333 2.98406L1.26433 1.28731C0.788324 1.10094 0.251184 1.33475 0.0642408 1.81018C-0.12238 2.28586 0.111364 2.82333 0.587114 3.01027L4.4274 4.51892L7.11096 19.1294C7.19185 19.5686 7.57464 19.8876 8.02141 19.8876H8.46656L7.45006 22.7111C7.36498 22.9476 7.40003 23.2103 7.54482 23.4158C7.68942 23.6213 7.92458 23.7436 8.17562 23.7436H8.8886C8.44681 24.2353 8.17562 24.8827 8.17562 25.5946C8.17562 27.1257 9.42142 28.3711 10.9521 28.3711C12.4829 28.3711 13.7287 27.1257 13.7287 25.5946C13.7287 24.8827 13.4575 24.2353 13.0158 23.7436H19.0693C18.6273 24.2353 18.3562 24.8827 18.3562 25.5946C18.3562 27.1257 19.6016 28.3711 21.1327 28.3711C22.6638 28.3711 23.9092 27.1257 23.9092 25.5946C23.9092 24.8827 23.6381 24.2353 23.1964 23.7436H24.0635C24.4895 23.7436 24.8348 23.3983 24.8348 22.9724C24.8348 22.5463 24.4895 22.2011 24.0635 22.2011H9.27301L10.1059 19.8873H24.0634C24.4659 19.8873 24.822 19.6273 24.9446 19.2444L28.8009 7.21269C28.8895 6.93809 28.844 6.63785 28.6789 6.40107ZM10.9522 26.8289C10.2716 26.8289 9.71817 26.2755 9.71817 25.5949C9.71817 24.9144 10.2716 24.3609 10.9522 24.3609C11.6328 24.3609 12.1862 24.9144 12.1862 25.5949C12.1862 26.2755 11.6328 26.8289 10.9522 26.8289ZM21.1327 26.8289C20.4521 26.8289 19.8987 26.2755 19.8987 25.5949C19.8987 24.9144 20.4521 24.3609 21.1327 24.3609C21.8133 24.3609 22.3667 24.9144 22.3667 25.5949C22.3667 26.2755 21.8133 26.8289 21.1327 26.8289Z" fill="white"/>
</g>
<defs>
<clipPath id="clip0_293_2448">
<rect width="28.8454" height="28.8454" fill="white" transform="translate(0 0.374466)"/>
</clipPath>
</defs>
</svg>
