<svg width="44" height="38" viewBox="0 0 44 38" fill="none" xmlns="http://www.w3.org/2000/svg">
<g clip-path="url(#clip0_293_2447)">
<path d="M28.6789 14.4011C28.5138 14.1644 28.2481 14.0181 27.9595 14.0058L10.0664 13.2345C9.55304 13.2121 9.12403 13.6084 9.10208 14.1194C9.08026 14.6302 9.47597 15.0618 9.9869 15.0838L26.6686 15.8029L23.3886 26.0366H8.79236L6.15533 11.6782C6.09736 11.3635 5.88131 11.101 5.58333 10.9841L1.26433 9.2873C0.788324 9.10094 0.251184 9.33475 0.0642408 9.81018C-0.12238 10.2859 0.111364 10.8233 0.587114 11.0103L4.4274 12.5189L7.11096 27.1294C7.19185 27.5686 7.57464 27.8876 8.02141 27.8876H8.46656L7.45006 30.7111C7.36498 30.9476 7.40003 31.2103 7.54482 31.4158C7.68942 31.6213 7.92458 31.7436 8.17562 31.7436H8.8886C8.44681 32.2353 8.17562 32.8827 8.17562 33.5946C8.17562 35.1257 9.42142 36.3711 10.9521 36.3711C12.4829 36.3711 13.7287 35.1257 13.7287 33.5946C13.7287 32.8827 13.4575 32.2353 13.0158 31.7436H19.0693C18.6273 32.2353 18.3562 32.8827 18.3562 33.5946C18.3562 35.1257 19.6016 36.3711 21.1327 36.3711C22.6638 36.3711 23.9092 35.1257 23.9092 33.5946C23.9092 32.8827 23.6381 32.2353 23.1964 31.7436H24.0635C24.4895 31.7436 24.8348 31.3983 24.8348 30.9724C24.8348 30.5463 24.4895 30.2011 24.0635 30.2011H9.27301L10.1059 27.8873H24.0634C24.4659 27.8873 24.822 27.6273 24.9446 27.2444L28.8009 15.2127C28.8895 14.9381 28.844 14.6379 28.6789 14.4011ZM10.9522 34.8289C10.2716 34.8289 9.71817 34.2755 9.71817 33.5949C9.71817 32.9144 10.2716 32.3609 10.9522 32.3609C11.6328 32.3609 12.1862 32.9144 12.1862 33.5949C12.1862 34.2755 11.6328 34.8289 10.9522 34.8289ZM21.1327 34.8289C20.4521 34.8289 19.8987 34.2755 19.8987 33.5949C19.8987 32.9144 20.4521 32.3609 21.1327 32.3609C21.8133 32.3609 22.3667 32.9144 22.3667 33.5949C22.3667 34.2755 21.8133 34.8289 21.1327 34.8289Z" fill="black"/>
</g>
<path d="M35.3591 12.861V6.29664H33.7616L34.4323 4.95542H36.9675V12.861H35.3591Z" fill="white"/>
<circle cx="36.2892" cy="7.44397" r="6.97872" stroke="white" stroke-width="0.930496"/>
<defs>
<clipPath id="clip0_293_2447">
<rect width="28.8454" height="28.8454" fill="white" transform="translate(0 8.37446)"/>
</clipPath>
</defs>
</svg>
