<svg xmlns="http://www.w3.org/2000/svg" width="29" height="29" viewBox="0 0 29 29" fill="none">
  <g clip-path="url(#clip0_230_5414)">
    <path d="M11.6665 24.4688H5.66504C3.79114 24.4688 2.2666 22.9442 2.2666 21.0703V5.66406C2.2666 3.79016 3.79114 2.26562 5.66504 2.26562H21.0713C22.9452 2.26562 24.4697 3.79016 24.4697 5.66406V11.843C24.4697 12.4686 24.9769 12.9758 25.6025 12.9758C26.2282 12.9758 26.7354 12.4686 26.7354 11.843V5.66406C26.7354 2.5409 24.1945 0 21.0713 0H5.66504C2.54182 0 0.000976562 2.5409 0.000976562 5.66406V21.0703C0.000976562 24.1935 2.54182 26.7344 5.66504 26.7344H11.6665C12.2921 26.7344 12.7993 26.2272 12.7993 25.6016C12.7993 24.9759 12.2921 24.4688 11.6665 24.4688Z" fill="white"/>
    <path d="M28.0056 15.8519C26.6804 14.5269 24.5245 14.5269 23.1994 15.8519L17.4548 21.5965C15.7799 23.2715 14.8574 25.4985 14.8574 27.8672C14.8574 28.4929 15.3646 29 15.9902 29C18.359 29 20.586 28.0776 22.261 26.4026L28.0056 20.6581C29.3306 19.333 29.3306 17.177 28.0056 15.8519ZM26.4035 17.454C26.8452 17.8956 26.8452 18.6143 26.4035 19.056L25.6025 19.857L24.0005 18.255L24.8015 17.454C25.2432 17.0123 25.9619 17.0123 26.4035 17.454ZM20.659 24.8006C19.7119 25.7476 18.5278 26.3715 17.2405 26.6169C17.4859 25.3297 18.1099 24.1456 19.0569 23.1986L22.3984 19.8571L24.0004 21.4591L20.659 24.8006Z" fill="white"/>
    <path d="M7.79323 10.9963L4.864 13.9255C4.42164 14.368 4.42164 15.0852 4.864 15.5276C5.30642 15.97 6.02372 15.97 6.46608 15.5276L9.39525 12.5984C9.83693 12.1567 10.5556 12.1567 10.9973 12.5984L16.7757 18.3768C17.2181 18.8192 17.9354 18.8192 18.3778 18.3768C18.8201 17.9344 18.8201 17.2171 18.3778 16.7748L12.5994 10.9963C11.2744 9.67131 9.11833 9.67131 7.79323 10.9963Z" fill="white"/>
    <path d="M18.8057 11.3281C16.9318 11.3281 15.4072 9.80359 15.4072 7.92969C15.4072 6.05579 16.9318 4.53125 18.8057 4.53125C20.6796 4.53125 22.2041 6.05579 22.2041 7.92969C22.2041 9.80359 20.6796 11.3281 18.8057 11.3281ZM18.8057 6.79688C18.181 6.79688 17.6729 7.30505 17.6729 7.92969C17.6729 8.55432 18.181 9.0625 18.8057 9.0625C19.4303 9.0625 19.9385 8.55432 19.9385 7.92969C19.9385 7.30505 19.4303 6.79688 18.8057 6.79688Z" fill="white"/>
  </g>
  <defs>
    <clipPath id="clip0_230_5414">
      <rect width="29" height="29" fill="white"/>
    </clipPath>
  </defs>
</svg>