<svg width="25" height="25" viewBox="0 0 25 25" fill="none" xmlns="http://www.w3.org/2000/svg">
<path d="M13.5 1C7.144 1 2 6.14355 2 12.5C2 18.856 7.14355 24 13.5 24C19.856 24 25 18.8564 25 12.5C25 6.144 19.8564 1 13.5 1ZM10.7636 17.3511C10.7636 17.3511 6.79155 13.3774 6.50602 13.0924C5.87087 12.4573 5.87087 11.4237 6.50602 10.7891C7.14279 10.1523 8.17258 10.1523 8.80935 10.7891L11.3809 13.3606C11.7006 13.6804 12.2195 13.6782 12.5366 13.3568L18.1828 7.62917C18.8174 6.98535 19.8543 6.98099 20.4943 7.62104C21.1245 8.25129 21.1284 9.28054 20.5024 9.91569C14.3709 16.1367 13.2065 17.3506 13.2065 17.3506C12.5333 18.0237 11.4373 18.0243 10.7636 17.3511Z" fill="#43AC3A"/>
</svg>
