  <svg xmlns="http://www.w3.org/2000/svg" width="60" height="54" viewBox="0 0 60 54" fill="none">
                            <g clip-path="url(#clip0_90_2307)">
                                <path
                                    d="M12.8488 28.8107C15.8031 28.8107 18.6401 28.7638 21.4771 28.8342C22.2274 28.8577 23.1653 28.9985 23.6342 29.4679C24.2439 30.0547 24.7831 31.0406 24.7831 31.8621C24.8769 38.0822 24.8535 44.3023 24.83 50.4989C24.83 52.4471 23.6342 53.6442 21.6647 53.6442C15.4982 53.6677 9.33177 53.6677 3.1653 53.6442C1.21923 53.6442 2.63192e-06 52.4471 0.0234493 50.4989C0.0703426 43.2695 2.62074e-06 36.0401 0.304809 28.8107C0.539276 22.9662 1.64127 17.2155 5.13482 12.216C8.74561 7.02862 13.5991 3.41392 19.3669 0.972819C20.9613 0.292129 22.3916 0.855459 23.1888 2.42809C23.9625 3.95378 24.6893 5.50293 25.4162 7.07557C26.2603 8.95333 25.721 10.4555 23.8453 11.324C21.1489 12.5446 18.6635 14.0468 16.7644 16.3705C13.8335 19.9383 12.9426 24.1867 12.8488 28.8107Z"
                                    fill="#253E56" />
                                <path
                                    d="M47.034 28.8106C49.8711 28.8106 52.5909 28.8106 55.3341 28.8106C58.0539 28.8106 59.0621 29.8434 59.0621 32.5662C59.0621 38.3872 59.0621 44.2083 59.0621 50.0529C59.0621 52.6113 57.9836 53.691 55.4279 53.691C49.5662 53.691 43.7046 53.691 37.8429 53.691C35.2872 53.691 34.1852 52.6113 34.2087 50.0763C34.279 43.0347 34.2087 35.9931 34.49 28.9749C34.7245 22.6609 35.9906 16.5817 39.9531 11.3708C43.5404 6.6999 48.136 3.36686 53.5053 1.0666C55.1465 0.362436 56.5768 0.925766 57.3974 2.56881C58.1477 4.07103 58.8746 5.57324 59.578 7.09893C60.4455 9.00017 59.9062 10.432 58.007 11.3239C55.2169 12.6149 52.6143 14.164 50.6917 16.6521C47.9719 20.1964 47.1043 24.304 47.034 28.8106Z"
                                    fill="#253E56" />
                            </g>
                            <defs>
                                <clipPath id="clip0_90_2307">
                                    <rect width="60" height="53" fill="white" transform="translate(0 0.690918)" />
                                </clipPath>
                            </defs>
                        </svg>