<svg xmlns="http://www.w3.org/2000/svg" width="149" height="93" viewBox="0 0 149 93" fill="none">
  <path d="M22.6929 74.4451C22.6929 74.4451 33.9119 66.6603 56.4832 69.1522C76.8979 71.4076 91.0125 71.0802 101.032 66.1631C101.032 66.1631 93.1872 75.8639 68.8047 74.6088C44.4221 73.3538 38.9701 69.4674 22.6929 74.4451Z" fill="#E2E2E2"/>
  <path d="M64.0673 78.8105C63.9434 78.4633 63.8719 78.0995 63.8553 77.7312C43.2589 86.9045 25.3824 87.5411 20.2393 77.9859C18.6522 75.0272 18.422 71.3591 19.3973 67.2484H15.9444C13.2608 73.9176 12.8731 79.8594 15.2841 84.352C21.1783 95.3321 42.017 94.3377 65.8362 83.3759C65.1941 81.8723 64.6186 80.3444 64.0673 78.8105Z" fill="#E2E2E2"/>
  <path d="M24.8677 31.3071C24.8677 31.3071 36.7954 23.0311 60.7782 25.6806C82.465 28.1058 97.4822 27.7299 108.12 22.5097C108.12 22.5097 99.7781 32.8167 73.869 31.4768C47.9599 30.1369 42.1747 26.0019 24.8677 31.3071Z" fill="#E2E2E2"/>
  <path style="mix-blend-mode:multiply" d="M64.5884 80.2231C50.5525 86.6681 27.9934 94.2407 15.1206 83.9943C15.1812 84.1095 15.2296 84.2368 15.2963 84.352C21.1905 95.3321 42.0292 94.3377 65.8484 83.3698C65.4123 82.3351 64.9923 81.2862 64.5884 80.2231Z" fill="url(#paint0_linear_191_2404)"/>
  <path style="mix-blend-mode:multiply" d="M73.869 31.4586C99.7781 32.8107 108.12 22.4915 108.12 22.4915C97.2823 30.2097 78.3639 29.6276 58.0703 27.3419C37.7768 25.0561 24.8677 31.3071 24.8677 31.3071C42.1747 26.0019 47.9599 30.0945 73.869 31.4586Z" fill="url(#paint1_linear_191_2404)"/>
  <path style="mix-blend-mode:multiply" d="M68.8289 74.6088C93.2114 75.876 101.056 66.1631 101.056 66.1631C88.0684 74.3542 70.2464 72.3413 53.0181 70.7164C31.719 68.6974 22.6929 74.4573 22.6929 74.4573C38.9701 69.4674 44.4221 73.3295 68.8289 74.6088Z" fill="url(#paint2_linear_191_2404)"/>
  <path d="M122.252 12.3603C122.31 9.48161 121.319 6.68027 119.466 4.47839C116.746 1.19832 111.9 0.155489 107.144 0.167615C106.102 0.167615 105.067 0.21612 104.067 0.301002C91.1579 1.96832 74.7776 8.4072 58.4398 19.0417C57.095 19.9188 55.7744 20.81 54.478 21.7154H54.8354C55.0029 21.7061 55.1708 21.7061 55.3382 21.7154C56.4407 20.9515 57.5554 20.1936 58.6942 19.4539C86.1905 1.55603 113.82 -2.97907 120.417 9.29846C121.484 11.3825 121.969 13.7157 121.822 16.0526C122.102 14.8416 122.246 13.6032 122.252 12.3603Z" fill="#E2E2E2"/>
  <path d="M118.03 32.3681C117.918 32.3677 117.808 32.3364 117.713 32.2775C117.618 32.2187 117.541 32.1346 117.491 32.0346C117.446 31.9377 117.427 31.8306 117.437 31.7241C117.446 31.6176 117.484 31.5156 117.545 31.4283C121.619 25.84 124.049 19.2224 124.56 12.3239C124.56 12.0814 124.56 11.8449 124.56 11.6024C124.495 8.69089 123.397 5.89747 121.465 3.72051C120.572 2.67105 119.494 1.79545 118.284 1.13768C118.156 1.06682 118.057 0.951469 118.007 0.813143C117.956 0.674816 117.958 0.522955 118.012 0.385873C118.065 0.249888 118.165 0.137616 118.294 0.069675C118.423 0.00173426 118.572 -0.0173137 118.714 0.016031C123.615 1.11949 127.389 3.53862 129.437 7.3583C130.503 9.52321 131.019 11.9182 130.939 14.3307C130.939 19.7086 128.964 26.1171 125.705 32.0831C125.653 32.1779 125.577 32.2571 125.484 32.3125C125.392 32.368 125.286 32.3976 125.178 32.3984H118.03V32.3681ZM124.815 31.1555C127.892 25.426 129.728 19.2902 129.728 14.3004C129.797 12.0977 129.325 9.91156 128.352 7.93428C126.892 5.30072 124.546 3.27064 121.731 2.20477C121.955 2.4291 122.167 2.66555 122.379 2.91413C124.504 5.31602 125.706 8.39533 125.772 11.6024C125.772 11.8692 125.772 12.1359 125.772 12.4027C125.28 19.1195 123.028 25.5879 119.241 31.1555H124.851H124.815Z" fill="#666666"/>
  <path d="M121.919 3.3264C124.258 6.12143 125.348 9.30449 125.13 12.3602C124.621 19.3642 122.161 26.0853 118.03 31.7618H125.166C129.946 23.0068 131.903 13.2818 128.88 7.6493C126.929 4.01152 123.343 1.69546 118.582 0.604126C119.848 1.30416 120.979 2.22623 121.919 3.3264Z" fill="url(#paint3_linear_191_2404)"/>
  <path d="M58.2582 16.3557L61.0629 20.4604L52.582 23.025L58.2582 16.3557Z" fill="#E2E2E2"/>
  <path d="M64.855 86.5711L60.0088 76.8218L71.2763 76.8461L64.855 86.5711Z" fill="#E2E2E2"/>
  <path d="M66.1696 56.2683L63.1407 51.2179H52.473L55.3625 46.2523H60.2512L57.6524 41.887L49.1715 56.2683H42.6533L55.1323 35.4723C55.3852 35.0235 55.7275 34.6314 56.1379 34.3204C56.5985 33.9887 57.1516 33.8105 57.719 33.8111H57.7735C58.1436 33.8082 58.5104 33.8803 58.8518 34.0233L58.9003 33.9687L59.3788 34.3325L59.4212 34.3689L59.8574 34.7023L59.8271 34.7387C60.0267 34.9572 60.2014 35.1971 60.3481 35.4541L72.8695 56.2683H66.1696ZM54.5508 50.0053H63.8555L66.8844 55.0557H70.7493L59.3304 36.0726C59.1645 35.7722 58.94 35.5083 58.6701 35.2965C58.4337 35.1247 58.1504 35.0295 57.8583 35.0237H57.7493C57.4389 35.0201 57.1355 35.1157 56.883 35.2965C56.6025 35.5111 56.3694 35.7815 56.1985 36.0908L44.822 55.0497H48.4567L57.6403 39.5163L62.3714 47.4649H56.0289L54.5508 50.0053Z" fill="#E2E2E2"/>
  <path d="M25.1099 56.2623V34.0839H40.2543C41.4342 34.0774 42.6058 34.2827 43.7133 34.6902C44.7225 35.0379 45.6442 35.6005 46.4151 36.3393C47.1611 37.0833 47.7359 37.9813 48.0991 38.9706C48.4869 40.0452 48.6778 41.181 48.6625 42.3235C48.6706 43.2755 48.5379 44.2235 48.2687 45.1367L48.0809 45.652C47.7181 46.6499 47.1507 47.5607 46.4151 48.3258C45.6574 49.0926 44.7444 49.688 43.7375 50.072C42.6234 50.4939 41.4392 50.6996 40.2482 50.6783H31.1616V45.167H40.2482C40.634 45.1975 41.0219 45.148 41.3877 45.0218C41.7535 44.8956 42.0895 44.6953 42.3745 44.4334C42.6277 44.1671 42.8234 43.8515 42.9495 43.5062C43.0756 43.161 43.1294 42.7935 43.1075 42.4265C43.1347 42.0601 43.0846 41.6921 42.9604 41.3464C42.8362 41.0006 42.6407 40.6849 42.3866 40.4197C42.0975 40.1613 41.7587 39.9646 41.391 39.8416C41.0234 39.7186 40.6345 39.6719 40.2482 39.7043H30.7012V56.2501L25.1099 56.2623ZM26.3214 55.0497H29.4896V38.4977H40.2604C40.8037 38.4665 41.3478 38.5442 41.8607 38.7264C42.3735 38.9086 42.8448 39.1916 43.2468 39.5588C43.6115 39.9398 43.8952 40.391 44.0805 40.885C44.2659 41.379 44.3491 41.9055 44.3251 42.4326C44.3458 42.9572 44.2604 43.4805 44.0741 43.9712C43.8877 44.4619 43.6043 44.9099 43.2408 45.2883C42.8441 45.6654 42.3745 45.9573 41.8609 46.1461C41.3473 46.3348 40.8006 46.4163 40.2543 46.3857H32.3792V49.496H40.2543C41.2881 49.5119 42.3156 49.333 43.2832 48.9685C44.1298 48.6483 44.8967 48.1477 45.5306 47.5013C46.1163 46.8958 46.5737 46.1781 46.8754 45.3913L46.93 45.2519C47.2673 44.3193 47.4336 43.3334 47.4207 42.3417C47.4367 41.3438 47.2704 40.3513 46.93 39.4132C46.633 38.5877 46.1572 37.8382 45.5367 37.2184C44.8948 36.598 44.1288 36.1207 43.2892 35.8179C42.3175 35.4719 41.2916 35.3035 40.2604 35.3207H26.3214V55.0739V55.0497Z" fill="#E2E2E2"/>
  <path d="M125.608 56.2683V50.6419H141.686C142.201 50.69 142.715 50.538 143.121 50.2175C143.272 50.0721 143.389 49.8949 143.463 49.6989C143.538 49.5029 143.568 49.2928 143.551 49.0837C143.551 48.3986 143.388 48.1439 143.164 47.9439C142.736 47.6396 142.214 47.4997 141.692 47.5498H132.435C131.459 47.5586 130.488 47.3923 129.57 47.0587C128.715 46.7517 127.934 46.2707 127.274 45.646C126.642 45.0323 126.144 44.2929 125.814 43.4755C125.474 42.6191 125.304 41.7049 125.311 40.7835C125.303 39.8851 125.461 38.9929 125.778 38.1522C126.094 37.3302 126.588 36.5888 127.226 35.9816C127.891 35.3631 128.677 34.8885 129.534 34.5871C130.505 34.2422 131.532 34.0758 132.562 34.096H148.01V39.7164H132.562C132.361 39.6944 132.156 39.7131 131.962 39.7714C131.767 39.8297 131.586 39.9265 131.43 40.0559C131.303 40.1961 131.206 40.3613 131.147 40.5408C131.088 40.7204 131.066 40.9104 131.084 41.0988C131.063 41.284 131.083 41.4715 131.141 41.6485C131.2 41.8254 131.296 41.9874 131.424 42.1234C131.732 42.383 132.131 42.5095 132.532 42.4751H141.722C143.909 42.4751 145.75 42.9904 147.071 44.1848C148.398 45.3974 148.997 47.1739 148.997 49.2777C149.001 49.2937 149.001 49.3102 148.997 49.3262V49.6294C148.976 50.4558 148.827 51.2739 148.555 52.0546C148.259 52.8979 147.781 53.6658 147.156 54.3039C146.498 54.9599 145.703 55.4629 144.829 55.7772C143.831 56.1337 142.776 56.3082 141.716 56.2926H125.608V56.2683ZM126.82 55.0557H141.698C142.611 55.0755 143.521 54.9275 144.381 54.6192C145.093 54.3592 145.738 53.9452 146.271 53.4066C146.775 52.8902 147.16 52.2693 147.398 51.5877C147.654 50.8532 147.781 50.0799 147.774 49.302C147.774 47.3921 147.247 45.9916 146.235 45.0579C145.241 44.1545 143.812 43.6877 141.837 43.6634H132.508C131.798 43.6967 131.103 43.4533 130.57 42.9843C130.323 42.735 130.132 42.4368 130.008 42.1089C129.883 41.781 129.829 41.4307 129.849 41.0806C129.833 40.7337 129.888 40.3873 130.01 40.0621C130.131 39.737 130.318 39.44 130.557 39.1889C130.826 38.9487 131.139 38.7644 131.479 38.6468C131.819 38.5291 132.179 38.4805 132.538 38.5038H146.774V35.3086H132.538C131.657 35.2942 130.779 35.4337 129.946 35.7209C129.242 35.9704 128.597 36.3602 128.049 36.8668C127.545 37.3489 127.154 37.937 126.905 38.5887C126.639 39.2895 126.508 40.034 126.517 40.7835C126.509 41.5474 126.651 42.3056 126.935 43.0147C127.197 43.6777 127.598 44.2772 128.11 44.7729C128.65 45.2819 129.29 45.674 129.988 45.9249C130.783 46.209 131.622 46.3486 132.466 46.3372H141.692C142.503 46.2852 143.305 46.5285 143.951 47.0223C144.231 47.2836 144.45 47.6043 144.59 47.961C144.731 48.3176 144.79 48.7013 144.763 49.0837C144.778 49.4562 144.714 49.8277 144.575 50.1736C144.436 50.5195 144.226 50.832 143.957 51.0905C143.331 51.6315 142.517 51.9057 141.692 51.8545H126.814V55.0557H126.82Z" fill="#E2E2E2"/>
  <path d="M0.303244 56.2683V50.6419H16.3866C16.9002 50.6915 17.4129 50.5393 17.8163 50.2175C17.9672 50.072 18.0841 49.8949 18.1585 49.6989C18.2328 49.5028 18.2629 49.2927 18.2464 49.0837C18.2731 48.8772 18.2526 48.6673 18.1865 48.4699C18.1204 48.2724 18.0104 48.0926 17.8647 47.9439C17.4346 47.6407 16.9105 47.5009 16.3866 47.5498H7.17882C6.18371 47.5595 5.19486 47.3912 4.25897 47.0526C3.40426 46.7429 2.62264 46.2599 1.96307 45.6339C1.33122 45.0232 0.835729 44.2855 0.509208 43.4694C0.164613 42.6142 -0.0082967 41.6995 0.000355103 40.7774C-0.00859461 39.8784 0.1517 38.9857 0.472861 38.1461C0.783001 37.3244 1.27605 36.5842 1.91461 35.9816C2.57918 35.3604 3.36499 34.8835 4.22262 34.5811C5.19462 34.2367 6.22062 34.0704 7.25151 34.0899H22.6807V39.7103H7.2394C7.03711 39.6898 6.83278 39.7099 6.6383 39.7692C6.44382 39.8285 6.26307 39.926 6.10659 40.0559C5.97679 40.1956 5.8783 40.3615 5.81771 40.5424C5.75712 40.7233 5.73582 40.915 5.75524 41.1048C5.73546 41.2895 5.7561 41.4763 5.81573 41.6522C5.87536 41.8281 5.97255 41.9889 6.10054 42.1234C6.25287 42.2525 6.4293 42.3501 6.6196 42.4104C6.80989 42.4708 7.01027 42.4928 7.20911 42.475H16.9924C18.7255 42.4656 20.4067 43.0665 21.7417 44.1727C23.0805 45.3853 23.6802 47.2042 23.6741 49.302C23.6825 50.2225 23.5309 51.1375 23.2259 52.006C22.9319 52.8504 22.4539 53.6188 21.8265 54.2554C21.1676 54.9117 20.3738 55.4165 19.5003 55.7348C18.5004 56.0862 17.4464 56.2586 16.3866 56.2441H0.303244V56.2683ZM1.5148 55.0557H16.3866C17.302 55.0718 18.2129 54.924 19.0763 54.6192C19.7871 54.3578 20.4322 53.9439 20.9663 53.4066C21.4686 52.8898 21.8512 52.2689 22.087 51.5877C22.3425 50.8489 22.4695 50.0716 22.4626 49.2898C22.4626 47.3739 21.9416 45.9734 20.93 45.0457C19.9304 44.1484 18.4766 43.6755 16.532 43.6513L15.7809 44.0272V43.6513H7.20305C6.4952 43.6849 5.80209 43.4413 5.27062 42.9722C5.02206 42.7245 4.82919 42.4265 4.70487 42.0982C4.58056 41.7699 4.52767 41.4188 4.54974 41.0684C4.536 40.7241 4.59107 40.3805 4.71174 40.0578C4.8324 39.735 5.01623 39.4396 5.25245 39.1889C5.52132 38.9498 5.83471 38.7663 6.17464 38.6487C6.51457 38.5311 6.87435 38.4819 7.23334 38.5038H21.4752V35.3086H7.2394C6.35577 35.2937 5.47632 35.4332 4.64061 35.7209C3.93906 35.9697 3.29584 36.3597 2.75058 36.8668C2.23897 37.344 1.84141 37.9305 1.58749 38.5826C1.32493 39.2842 1.19352 40.0282 1.19979 40.7774C1.19162 41.5414 1.33364 42.2995 1.61778 43.0086C1.88048 43.6712 2.28348 44.269 2.79905 44.7608C3.33838 45.2725 3.97779 45.6668 4.67696 45.9188C5.47698 46.2074 6.32246 46.3491 7.17276 46.3372H16.3806C17.1932 46.2881 17.9967 46.531 18.6462 47.0223C18.9244 47.2849 19.1409 47.606 19.2803 47.9625C19.4196 48.3189 19.4782 48.7018 19.4519 49.0837C19.4669 49.4562 19.4029 49.8276 19.264 50.1736C19.1251 50.5195 18.9146 50.832 18.6462 51.0905C18.0203 51.6327 17.2067 51.907 16.3806 51.8545H1.5148V55.0557Z" fill="#E2E2E2"/>
  <path d="M92.454 56.2683L87.3776 50.6904H79.2723V45.4823H88.6861C89.0638 45.5188 89.445 45.4756 89.8049 45.3555C90.1649 45.2354 90.4957 45.041 90.776 44.7851C91.2856 44.1449 91.5286 43.3326 91.4545 42.5175C91.4545 41.3716 91.1758 40.7471 90.7821 40.3773C90.1986 39.8875 89.4447 39.6498 88.6861 39.7164H78.8301V56.2623H73.2388V34.09H88.6558H88.6861C89.8541 34.0849 91.0134 34.2903 92.1087 34.6963C93.1114 35.0643 94.0212 35.648 94.7742 36.406C95.5183 37.168 96.0886 38.0822 96.4461 39.0859C96.8363 40.1766 97.0272 41.3288 97.0095 42.4872C97.0606 44.1693 96.6251 45.8305 95.7555 47.2709C95.2028 48.1393 94.4667 48.876 93.599 49.4293L100.396 56.2986L92.454 56.2683ZM80.4839 49.496H87.8986L92.969 55.0739H97.5002L91.5938 49.108L92.3511 48.7321C93.331 48.2593 94.1596 47.5223 94.7439 46.6039C95.4923 45.3604 95.8627 43.9258 95.81 42.4751C95.8243 41.462 95.6602 40.4543 95.3254 39.4981C95.0261 38.6563 94.5488 37.889 93.9261 37.2488C93.2941 36.6144 92.5312 36.126 91.6908 35.8179C90.7456 35.4747 89.746 35.3062 88.7406 35.3208H74.4503V55.0679H77.6185V38.5038H88.6861C89.7534 38.4345 90.8049 38.7897 91.612 39.4921C91.9897 39.8955 92.2787 40.3738 92.4603 40.8959C92.6419 41.4181 92.712 41.9726 92.6661 42.5236C92.7413 43.6454 92.381 44.7531 91.6605 45.6157C91.2687 45.9955 90.8013 46.2885 90.2888 46.4755C89.7763 46.6625 89.2302 46.7393 88.6861 46.701H80.4839V49.496Z" fill="#E2E2E2"/>
  <path d="M116.927 56.2683L105.951 47.6286V56.2623H100.329V34.09H105.951V42.2204L116.497 34.1021H125.426L110.888 44.9669L125.814 56.2865L116.927 56.2683ZM105.811 45.9249C105.921 46.0497 106.043 46.1634 106.175 46.2644L117.345 55.0557H122.192L109.47 45.4277L108.828 44.9427L121.743 35.3026H116.897L106.332 43.433C106.142 43.5694 105.971 43.7304 105.824 43.912L104.988 44.9487L105.811 45.9188V45.9249ZM101.541 55.0557H104.745V35.3026H101.541V55.0557Z" fill="#E2E2E2"/>
  <path d="M59.0154 34.8175C58.6535 34.5484 58.2122 34.4076 57.7615 34.4174C57.3098 34.4081 56.8675 34.5465 56.5014 34.8115C56.1554 35.0691 55.8683 35.3978 55.6594 35.7755L43.7256 55.662H48.7838L57.6221 40.7047L61.2871 46.8586H55.6776L53.4968 50.6116H63.5103L66.5392 55.662H71.8216L59.8574 35.7694C59.6444 35.3981 59.3579 35.0742 59.0154 34.8175Z" fill="white"/>
  <path d="M47.5176 45.4459C48.2201 43.4174 48.2201 41.2113 47.5176 39.1829C47.1884 38.2714 46.6631 37.4435 45.9789 36.7577C45.2776 36.0768 44.4391 35.5539 43.5194 35.2237C42.4743 34.8495 41.3703 34.6667 40.2603 34.6841H25.7217V55.6499H30.1075V39.098H40.2664C40.7301 39.0661 41.1954 39.128 41.6346 39.2801C42.0739 39.4322 42.478 39.6713 42.8228 39.9832C43.1312 40.304 43.3704 40.6848 43.5257 41.102C43.681 41.5191 43.7489 41.9638 43.7254 42.4084C43.7456 42.8531 43.6755 43.2973 43.5194 43.7142C43.3632 44.131 43.1241 44.5118 42.8167 44.8336C42.4773 45.1533 42.0756 45.3997 41.6369 45.5572C41.1981 45.7147 40.7315 45.78 40.2664 45.7491H31.7855V50.1023H40.2664C41.3805 50.121 42.4881 49.9297 43.5315 49.5384C44.4525 49.1899 45.2866 48.6449 45.976 47.9413C46.6653 47.2378 47.1934 46.3925 47.5236 45.4641L47.5176 45.4459Z" fill="white"/>
  <path d="M146.641 44.6456C145.466 43.5906 143.794 43.0935 141.692 43.0935H132.508C131.955 43.1269 131.41 42.9443 130.988 42.5842C130.8 42.3915 130.655 42.1609 130.563 41.908C130.471 41.655 130.434 41.3854 130.454 41.1169C130.436 40.8473 130.473 40.5768 130.564 40.3223C130.655 40.0677 130.797 39.8346 130.982 39.6376C131.194 39.4522 131.441 39.3112 131.708 39.2227C131.975 39.1342 132.258 39.1 132.538 39.1222H147.38V34.7144H132.538C131.584 34.6981 130.634 34.8521 129.734 35.1692C128.955 35.4431 128.242 35.8744 127.638 36.4363C127.064 36.9783 126.62 37.6438 126.341 38.3825C126.047 39.1567 125.901 39.9795 125.911 40.8077C125.903 41.6504 126.059 42.4866 126.372 43.2693C126.667 44.0095 127.115 44.6789 127.686 45.2337C128.287 45.8001 128.999 46.2357 129.776 46.513C130.643 46.8292 131.561 46.9853 132.484 46.9738H141.692C142.358 46.9239 143.02 47.1154 143.557 47.5134C143.773 47.7171 143.939 47.967 144.044 48.2442C144.149 48.5214 144.189 48.8188 144.163 49.114C144.18 49.4038 144.134 49.6939 144.03 49.9647C143.925 50.2355 143.764 50.4809 143.557 50.6843C143.043 51.1175 142.381 51.3348 141.71 51.2906H126.214V55.7045H141.692C142.68 55.7242 143.663 55.564 144.593 55.2316C145.384 54.9442 146.103 54.4892 146.701 53.8977C147.263 53.3198 147.693 52.6268 147.961 51.8666C148.244 51.0644 148.383 50.219 148.373 49.3686C148.373 47.3012 147.816 45.7006 146.641 44.6456Z" fill="white"/>
  <path d="M16.3868 43.0813H7.20924C6.65559 43.1154 6.11039 42.9328 5.68874 42.5721C5.50099 42.3793 5.35637 42.1488 5.26446 41.8958C5.17255 41.6429 5.13546 41.3732 5.15565 41.1048C5.1363 40.8356 5.17257 40.5654 5.26221 40.3108C5.35184 40.0563 5.49291 39.823 5.67662 39.6254C5.88967 39.4396 6.13768 39.2983 6.40608 39.2098C6.67448 39.1213 6.95785 39.0874 7.23953 39.1101H22.0811V34.7023H7.23953C6.28498 34.685 5.33504 34.839 4.43478 35.157C3.65506 35.4315 2.9397 35.8627 2.33273 36.4242C1.76068 36.9678 1.3177 37.6328 1.03636 38.3704C0.744749 39.1453 0.598927 39.9676 0.606263 40.7956C0.598065 41.6383 0.754458 42.4745 1.06665 43.2572C1.36618 43.9964 1.81588 44.6654 2.38725 45.2216C2.9892 45.7747 3.69857 46.1978 4.47112 46.4645C5.3386 46.7802 6.25597 46.9363 7.17895 46.9253H16.3868C17.0551 46.8755 17.7191 47.067 18.2586 47.4649C18.4744 47.6681 18.6411 47.9179 18.7461 48.1952C18.8511 48.4725 18.8915 48.7702 18.8644 49.0655C18.8814 49.3554 18.8362 49.6455 18.7317 49.9164C18.6272 50.1873 18.4659 50.4326 18.2586 50.6358C17.7422 51.07 17.0779 51.2872 16.4049 51.2421H0.909152V55.656H16.3868C17.3747 55.6763 18.358 55.516 19.2884 55.183C20.0805 54.8987 20.8002 54.4433 21.3965 53.8492C21.9603 53.2728 22.3905 52.5794 22.6566 51.8181C22.9387 51.0159 23.0781 50.1705 23.0685 49.3201C23.0685 47.2951 22.5112 45.6824 21.336 44.6274C20.1608 43.5724 18.4949 43.0813 16.3868 43.0813Z" fill="white"/>
  <path d="M95.259 46.9132C96.0669 45.5709 96.4688 44.023 96.416 42.4569C96.4314 41.3714 96.255 40.2918 95.895 39.2677C95.5633 38.345 95.0388 37.5038 94.3563 36.8001C93.6709 36.1098 92.8443 35.5761 91.9332 35.2359C90.9026 34.862 89.8126 34.6791 88.7166 34.6963H73.875V55.662H78.2548V39.1101H88.7166C89.63 39.0453 90.5325 39.3414 91.2305 39.9347C91.5451 40.2819 91.7841 40.6908 91.9322 41.1355C92.0803 41.5801 92.1343 42.0508 92.0907 42.5175C92.1666 43.4861 91.8649 44.4465 91.2487 45.1973C90.9134 45.5164 90.5144 45.7607 90.078 45.9143C89.6415 46.0679 89.1776 46.1273 88.7166 46.0886H79.8783V50.1023H87.608L92.6783 55.6802H98.93L92.5935 49.2777C93.6846 48.7533 94.6078 47.9344 95.259 46.9132Z" fill="white"/>
  <path d="M109.864 44.9427L123.597 34.6963H116.685L105.951 42.954C105.726 43.1315 105.522 43.335 105.345 43.5603V34.6963H100.935V55.662H105.345V46.3129C105.482 46.471 105.637 46.6133 105.806 46.7373L117.14 55.662H123.997L109.864 44.9427Z" fill="white"/>
  <path d="M1.23633 65.0414V58.5904H2.35702V65.0414H1.23633ZM6.39755 65.0414V62.2282H3.16876V61.2278H6.39755V58.5904H7.51824V65.0414H6.39755Z" fill="url(#paint4_linear_191_2404)"/>
  <path d="M1.23633 65.0414V58.5904H2.35702V65.0414H1.23633ZM6.39755 65.0414V62.2282H3.16876V61.2278H6.39755V58.5904H7.51824V65.0414H6.39755Z" fill="white"/>
  <path d="M10.2197 65.0111V58.5904H15.9504V59.7121H11.3344V63.8895H15.9625V65.0111H10.2197ZM12.1582 62.2222V61.2763H15.7141V62.2282L12.1582 62.2222Z" fill="url(#paint5_linear_191_2404)"/>
  <path d="M10.2197 65.0111V58.5904H15.9504V59.7121H11.3344V63.8895H15.9625V65.0111H10.2197ZM12.1582 62.2222V61.2763H15.7141V62.2282L12.1582 62.2222Z" fill="white"/>
  <path d="M25.213 65.0111L24.2498 63.3984H21.2209L21.748 62.4829H23.7167L22.2871 60.0577L19.3733 64.9869H18.083L21.7722 58.839C21.8291 58.7347 21.9076 58.6438 22.0024 58.5722C22.0935 58.5054 22.2045 58.4712 22.3174 58.4752C22.4304 58.4703 22.5417 58.5045 22.6324 58.5722C22.7237 58.6458 22.7998 58.7364 22.8565 58.839L26.5578 64.9869L25.213 65.0111Z" fill="url(#paint6_linear_191_2404)"/>
  <path d="M25.213 65.0111L24.2498 63.3984H21.2209L21.748 62.4829H23.7167L22.2871 60.0577L19.3733 64.9869H18.083L21.7722 58.839C21.8291 58.7347 21.9076 58.6438 22.0024 58.5722C22.0935 58.5054 22.2045 58.4712 22.3174 58.4752C22.4304 58.4703 22.5417 58.5045 22.6324 58.5722C22.7237 58.6458 22.7998 58.7364 22.8565 58.839L26.5578 64.9869L25.213 65.0111Z" fill="white"/>
  <path d="M29.7561 65.0111V59.7121H27.333V58.5904H33.3302V59.7121H30.9071V65.0111H29.7561Z" fill="white"/>
  <path d="M35.7051 65.0111V58.5904H36.8258V65.0111H35.7051Z" fill="url(#paint7_linear_191_2404)"/>
  <path d="M35.7051 65.0111V58.5904H36.8258V65.0111H35.7051Z" fill="white"/>
  <path d="M40.6299 60.3123V65.0111H39.5638V59.1967C39.5534 59.0201 39.6072 58.8457 39.7152 58.7056C39.7678 58.6459 39.8333 58.599 39.9068 58.5685C39.9803 58.538 40.0598 58.5248 40.1392 58.5298C40.2206 58.5283 40.3013 58.5449 40.3755 58.5783C40.4638 58.6228 40.5438 58.6823 40.6117 58.7542L45.143 63.2529V58.5541H46.2091V64.4412C46.2218 64.6181 46.1677 64.7933 46.0577 64.9323C46.0088 64.9902 45.9474 65.0361 45.8781 65.0666C45.8088 65.097 45.7335 65.1113 45.6579 65.1082C45.5605 65.1059 45.4646 65.0838 45.376 65.0432C45.2875 65.0025 45.2082 64.9441 45.143 64.8717L40.6299 60.3123Z" fill="url(#paint8_linear_191_2404)"/>
  <path d="M40.6299 60.3123V65.0111H39.5638V59.1967C39.5534 59.0201 39.6072 58.8457 39.7152 58.7056C39.7678 58.6459 39.8333 58.599 39.9068 58.5685C39.9803 58.538 40.0598 58.5248 40.1392 58.5298C40.2206 58.5283 40.3013 58.5449 40.3755 58.5783C40.4638 58.6228 40.5438 58.6823 40.6117 58.7542L45.143 63.2529V58.5541H46.2091V64.4412C46.2218 64.6181 46.1677 64.7933 46.0577 64.9323C46.0088 64.9902 45.9474 65.0361 45.8781 65.0666C45.8088 65.097 45.7335 65.1113 45.6579 65.1082C45.5605 65.1059 45.4646 65.0838 45.376 65.0432C45.2875 65.0025 45.2082 64.9441 45.143 64.8717L40.6299 60.3123Z" fill="white"/>
  <path d="M51.8188 65.0111C51.193 65.0202 50.5798 64.835 50.0635 64.4811C49.5471 64.1272 49.153 63.6219 48.9353 63.0346C48.7756 62.6209 48.6955 62.1807 48.699 61.7371C48.6932 61.2954 48.7735 60.8568 48.9353 60.4457C49.0823 60.0725 49.305 59.7339 49.5895 59.4514C49.8753 59.1858 50.2109 58.9798 50.5769 58.8451C50.9633 58.6954 51.3742 58.6194 51.7885 58.6208H55.2657V59.7424H51.7885C51.5144 59.7382 51.2424 59.7898 50.9889 59.894C50.7607 59.9964 50.5549 60.1426 50.3831 60.3245C50.2027 60.5136 50.0607 60.736 49.9651 60.9793C49.8639 61.2465 49.8125 61.5301 49.8137 61.816C49.813 62.1037 49.8643 62.3892 49.9651 62.6587C50.0621 62.9049 50.2039 63.131 50.3831 63.3256C50.5668 63.5199 50.7886 63.674 51.0346 63.7783C51.2806 63.8826 51.5455 63.9349 51.8127 63.9319H54.5569V62.2282H51.6613V61.2824H55.6897V65.0172L51.8188 65.0111Z" fill="url(#paint9_linear_191_2404)"/>
  <path d="M51.8188 65.0111C51.193 65.0202 50.5798 64.835 50.0635 64.4811C49.5471 64.1272 49.153 63.6219 48.9353 63.0346C48.7756 62.6209 48.6955 62.1807 48.699 61.7371C48.6932 61.2954 48.7735 60.8568 48.9353 60.4457C49.0823 60.0725 49.305 59.7339 49.5895 59.4514C49.8753 59.1858 50.2109 58.9798 50.5769 58.8451C50.9633 58.6954 51.3742 58.6194 51.7885 58.6208H55.2657V59.7424H51.7885C51.5144 59.7382 51.2424 59.7898 50.9889 59.894C50.7607 59.9964 50.5549 60.1426 50.3831 60.3245C50.2027 60.5136 50.0607 60.736 49.9651 60.9793C49.8639 61.2465 49.8125 61.5301 49.8137 61.816C49.813 62.1037 49.8643 62.3892 49.9651 62.6587C50.0621 62.9049 50.2039 63.131 50.3831 63.3256C50.5668 63.5199 50.7886 63.674 51.0346 63.7783C51.2806 63.8826 51.5455 63.9349 51.8127 63.9319H54.5569V62.2282H51.6613V61.2824H55.6897V65.0172L51.8188 65.0111Z" fill="white"/>
  <path d="M69.1923 65.0111L68.223 63.3984H65.1942L65.7272 62.4829H67.696L66.2603 60.0577L63.3768 65.0111H62.0986L65.7878 58.8633C65.8466 58.7603 65.9247 58.6697 66.018 58.5965C66.1114 58.5296 66.2243 58.4955 66.3391 58.4995C66.4501 58.4954 66.5592 58.5297 66.648 58.5965C66.7428 58.6681 66.8213 58.759 66.8782 58.8633L70.5735 65.0111H69.1923Z" fill="white"/>
  <path d="M73.8628 60.3123V65.0111H72.7967V59.1967C72.7863 59.0201 72.8401 58.8457 72.9481 58.7056C73.001 58.6462 73.0666 58.5996 73.14 58.5691C73.2134 58.5387 73.2928 58.5252 73.3722 58.5298C73.4535 58.5283 73.5342 58.5449 73.6084 58.5783C73.6967 58.6228 73.7767 58.6823 73.8447 58.7541L78.3759 63.2529V58.5541H79.442V64.4412C79.4547 64.6181 79.4006 64.7933 79.2906 64.9323C79.2417 64.9902 79.1803 65.0361 79.111 65.0666C79.0417 65.097 78.9664 65.1113 78.8908 65.1081C78.7934 65.1059 78.6975 65.0838 78.6089 65.0432C78.5204 65.0025 78.4411 64.9441 78.3759 64.8717L73.8628 60.3123Z" fill="white"/>
  <path d="M82.1196 65.0111V58.5904H85.8391C86.2681 58.5843 86.6942 58.6626 87.0931 58.8208C87.463 58.9645 87.7992 59.1833 88.0805 59.4635C88.3617 59.7475 88.5822 60.0858 88.7287 60.4578C88.89 60.8648 88.9702 61.2994 88.9649 61.7371C88.9685 62.1806 88.8883 62.6208 88.7287 63.0346C88.5827 63.4194 88.3625 63.7717 88.0805 64.0714C87.7999 64.3644 87.4643 64.5992 87.0931 64.7625C86.6962 64.9296 86.2696 65.0142 85.8391 65.0111H82.1196ZM85.8391 63.8895C86.1135 63.8906 86.3853 63.837 86.6387 63.7318C86.8649 63.6233 87.07 63.4755 87.2445 63.2953C87.4237 63.1007 87.5654 62.8746 87.6625 62.6284C87.7633 62.3589 87.8146 62.0734 87.8139 61.7856C87.8146 61.5018 87.7633 61.2203 87.6625 60.955C87.5713 60.7103 87.4306 60.487 87.2492 60.2993C87.0679 60.1115 86.8497 59.9632 86.6084 59.8637C86.3546 59.7606 86.0828 59.709 85.8088 59.7121H83.204V63.8895H85.8391Z" fill="white"/>
  <path d="M102.347 65.0111L101.39 63.3984H98.3607L98.8938 62.4829H100.863L99.4268 60.0577L96.5131 64.9869H95.2349L98.924 58.839C98.9738 58.7456 99.0394 58.6615 99.1179 58.5904C99.2113 58.5236 99.3242 58.4895 99.439 58.4934C99.55 58.4894 99.6591 58.5236 99.7479 58.5904C99.8427 58.662 99.9212 58.7529 99.9781 58.8572L103.673 65.0051L102.347 65.0111Z" fill="white"/>
  <path d="M106.042 65.0111V58.5904H107.162V65.0111H106.042Z" fill="white"/>
  <path d="M115.886 65.0111L114.262 63.2286H111.839V62.2282H114.517C114.684 62.239 114.852 62.2149 115.009 62.1575C115.166 62.1001 115.31 62.0106 115.431 61.8948C115.654 61.6275 115.765 61.2841 115.74 60.9368C115.755 60.7673 115.734 60.5966 115.679 60.4358C115.624 60.2749 115.535 60.1275 115.419 60.0031C115.169 59.7889 114.845 59.6803 114.517 59.7H111.021V64.999H109.907V58.5904H114.517C114.851 58.5855 115.183 58.641 115.498 58.7541C115.773 58.8557 116.023 59.0148 116.231 59.221C116.436 59.4303 116.591 59.6831 116.685 59.9607C116.796 60.2718 116.85 60.6005 116.843 60.9308C116.859 61.4033 116.739 61.8704 116.498 62.2767C116.268 62.6387 115.925 62.9139 115.522 63.0589L117.455 65.0111H115.886Z" fill="white"/>
  <path d="M121.277 66.054V63.7561H122.41L121.967 66.054H121.277Z" fill="white"/>
  <path d="M125.59 65.0111V58.5904H126.711V63.8895H131.024V65.0111H125.59Z" fill="white"/>
  <path d="M133.417 65.0111V58.5904H134.538V63.8895H138.857V65.0111H133.417Z" fill="white"/>
  <path d="M144.182 65.0111C143.755 65.0143 143.332 64.9297 142.94 64.7626C142.565 64.5982 142.227 64.3607 141.945 64.064C141.663 63.7673 141.443 63.4174 141.298 63.0346C141.141 62.6205 141.062 62.1803 141.068 61.7371C141.06 61.2958 141.138 60.8572 141.298 60.4457C141.445 60.0725 141.668 59.7339 141.952 59.4514C142.239 59.1876 142.575 58.9817 142.94 58.8451C143.336 58.6917 143.757 58.6155 144.182 58.6208H147.659V59.7424H144.182C143.908 59.7382 143.636 59.7898 143.382 59.894C143.154 59.9964 142.948 60.1426 142.776 60.3245C142.596 60.5136 142.454 60.736 142.358 60.9793C142.259 61.2469 142.21 61.5305 142.213 61.816C142.21 62.1033 142.259 62.3888 142.358 62.6587C142.455 62.9049 142.597 63.131 142.776 63.3256C142.96 63.5198 143.182 63.674 143.428 63.7783C143.674 63.8826 143.939 63.9349 144.206 63.9319H147.683V65.0536L144.182 65.0111Z" fill="white"/>
  <defs>
    <linearGradient id="paint0_linear_191_2404" x1="5.56144" y1="90.0088" x2="115.324" y2="78.9808" gradientUnits="userSpaceOnUse">
      <stop stop-color="white"/>
      <stop offset="1"/>
    </linearGradient>
    <linearGradient id="paint1_linear_191_2404" x1="66.4907" y1="34.1263" x2="66.4907" y2="20.3816" gradientUnits="userSpaceOnUse">
      <stop stop-color="white"/>
      <stop offset="1"/>
    </linearGradient>
    <linearGradient id="paint2_linear_191_2404" x1="61.8625" y1="76.7672" x2="61.8625" y2="68.2791" gradientUnits="userSpaceOnUse">
      <stop stop-color="white"/>
      <stop offset="1"/>
    </linearGradient>
    <linearGradient id="paint3_linear_191_2404" x1="124.185" y1="-11.7401" x2="124.185" y2="42.5235" gradientUnits="userSpaceOnUse">
      <stop stop-color="white"/>
      <stop offset="0.05" stop-color="#FCFCFC"/>
      <stop offset="0.09" stop-color="#F2F2F2"/>
      <stop offset="0.12" stop-color="#E1E1E1"/>
      <stop offset="0.15" stop-color="#CACACA"/>
      <stop offset="0.18" stop-color="#ABABAB"/>
      <stop offset="0.21" stop-color="#868686"/>
      <stop offset="0.24" stop-color="#5A5A5A"/>
      <stop offset="0.26" stop-color="#404040"/>
      <stop offset="0.28" stop-color="#616161"/>
      <stop offset="0.32" stop-color="#919191"/>
      <stop offset="0.37" stop-color="#B9B9B9"/>
      <stop offset="0.41" stop-color="#D7D7D7"/>
      <stop offset="0.44" stop-color="#EDEDED"/>
      <stop offset="0.48" stop-color="#FBFBFB"/>
      <stop offset="0.52" stop-color="white"/>
      <stop offset="0.81" stop-color="#404040"/>
      <stop offset="0.83" stop-color="#616161"/>
      <stop offset="0.86" stop-color="#919191"/>
      <stop offset="0.89" stop-color="#B9B9B9"/>
      <stop offset="0.92" stop-color="#D7D7D7"/>
      <stop offset="0.95" stop-color="#EDEDED"/>
      <stop offset="0.97" stop-color="#FBFBFB"/>
      <stop offset="1" stop-color="white"/>
    </linearGradient>
    <linearGradient id="paint4_linear_191_2404" x1="4.38032" y1="76.8885" x2="4.38032" y2="55.0618" gradientUnits="userSpaceOnUse">
      <stop stop-color="#FFF100"/>
      <stop offset="0.17" stop-color="#FFEE00"/>
      <stop offset="0.3" stop-color="#FFE400"/>
      <stop offset="0.42" stop-color="#FFD300"/>
      <stop offset="0.54" stop-color="#FFBC00"/>
      <stop offset="0.65" stop-color="#FF9D00"/>
      <stop offset="0.76" stop-color="#FF7800"/>
      <stop offset="0.86" stop-color="#FF4B00"/>
      <stop offset="0.96" stop-color="#FF1900"/>
      <stop offset="1" stop-color="#FF0000"/>
    </linearGradient>
    <linearGradient id="paint5_linear_191_2404" x1="13.0911" y1="76.8885" x2="13.0911" y2="55.0618" gradientUnits="userSpaceOnUse">
      <stop stop-color="#FFF100"/>
      <stop offset="0.17" stop-color="#FFEE00"/>
      <stop offset="0.3" stop-color="#FFE400"/>
      <stop offset="0.42" stop-color="#FFD300"/>
      <stop offset="0.54" stop-color="#FFBC00"/>
      <stop offset="0.65" stop-color="#FF9D00"/>
      <stop offset="0.76" stop-color="#FF7800"/>
      <stop offset="0.86" stop-color="#FF4B00"/>
      <stop offset="0.96" stop-color="#FF1900"/>
      <stop offset="1" stop-color="#FF0000"/>
    </linearGradient>
    <linearGradient id="paint6_linear_191_2404" x1="22.3174" y1="76.8885" x2="22.3174" y2="55.0618" gradientUnits="userSpaceOnUse">
      <stop stop-color="#FFF100"/>
      <stop offset="0.17" stop-color="#FFEE00"/>
      <stop offset="0.3" stop-color="#FFE400"/>
      <stop offset="0.42" stop-color="#FFD300"/>
      <stop offset="0.54" stop-color="#FFBC00"/>
      <stop offset="0.65" stop-color="#FF9D00"/>
      <stop offset="0.76" stop-color="#FF7800"/>
      <stop offset="0.86" stop-color="#FF4B00"/>
      <stop offset="0.96" stop-color="#FF1900"/>
      <stop offset="1" stop-color="#FF0000"/>
    </linearGradient>
    <linearGradient id="paint7_linear_191_2404" x1="36.2685" y1="76.8885" x2="36.2685" y2="55.0618" gradientUnits="userSpaceOnUse">
      <stop stop-color="#FFF100"/>
      <stop offset="0.17" stop-color="#FFEE00"/>
      <stop offset="0.3" stop-color="#FFE400"/>
      <stop offset="0.42" stop-color="#FFD300"/>
      <stop offset="0.54" stop-color="#FFBC00"/>
      <stop offset="0.65" stop-color="#FF9D00"/>
      <stop offset="0.76" stop-color="#FF7800"/>
      <stop offset="0.86" stop-color="#FF4B00"/>
      <stop offset="0.96" stop-color="#FF1900"/>
      <stop offset="1" stop-color="#FF0000"/>
    </linearGradient>
    <linearGradient id="paint8_linear_191_2404" x1="42.8895" y1="76.8885" x2="42.8895" y2="55.0618" gradientUnits="userSpaceOnUse">
      <stop stop-color="#FFF100"/>
      <stop offset="0.17" stop-color="#FFEE00"/>
      <stop offset="0.3" stop-color="#FFE400"/>
      <stop offset="0.42" stop-color="#FFD300"/>
      <stop offset="0.54" stop-color="#FFBC00"/>
      <stop offset="0.65" stop-color="#FF9D00"/>
      <stop offset="0.76" stop-color="#FF7800"/>
      <stop offset="0.86" stop-color="#FF4B00"/>
      <stop offset="0.96" stop-color="#FF1900"/>
      <stop offset="1" stop-color="#FF0000"/>
    </linearGradient>
    <linearGradient id="paint9_linear_191_2404" x1="52.2004" y1="76.8885" x2="52.2004" y2="55.0618" gradientUnits="userSpaceOnUse">
      <stop stop-color="#FFF100"/>
      <stop offset="0.17" stop-color="#FFEE00"/>
      <stop offset="0.3" stop-color="#FFE400"/>
      <stop offset="0.42" stop-color="#FFD300"/>
      <stop offset="0.54" stop-color="#FFBC00"/>
      <stop offset="0.65" stop-color="#FF9D00"/>
      <stop offset="0.76" stop-color="#FF7800"/>
      <stop offset="0.86" stop-color="#FF4B00"/>
      <stop offset="0.96" stop-color="#FF1900"/>
      <stop offset="1" stop-color="#FF0000"/>
    </linearGradient>
  </defs>
</svg>