<svg width="26" height="26" viewBox="0 0 26 26" fill="none" xmlns="http://www.w3.org/2000/svg">
<g clip-path="url(#clip0_65_828)">
<path d="M24.9167 11.9167H1.08333C0.485025 11.9167 0 12.4017 0 13C0 13.5983 0.485025 14.0833 1.08333 14.0833H24.9167C25.515 14.0833 26 13.5983 26 13C26 12.4017 25.515 11.9167 24.9167 11.9167Z" fill="#fff"/>
<path d="M24.9167 4.33334H1.08333C0.485025 4.33334 0 4.81837 0 5.41668C0 6.01499 0.485025 6.50001 1.08333 6.50001H24.9167C25.515 6.50001 26 6.01499 26 5.41668C26 4.81837 25.515 4.33334 24.9167 4.33334Z" fill="#fff"/>
<path d="M24.9167 19.5H1.08333C0.485025 19.5 0 19.985 0 20.5833C0 21.1816 0.485025 21.6667 1.08333 21.6667H24.9167C25.515 21.6667 26 21.1816 26 20.5833C26 19.985 25.515 19.5 24.9167 19.5Z" fill="#fff"/>
</g>
<defs>
<clipPath id="clip0_65_828">
<rect width="26" height="26" fill="white"/>
</clipPath>
</defs>
</svg>
