<svg width="20" height="23" viewBox="0 0 20 23" fill="none" xmlns="http://www.w3.org/2000/svg">
<path d="M4 8V7C4 3.68629 6.68629 1 10 1C13.3137 1 16 3.68629 16 7V8H18C18.5523 8 19 8.44772 19 9V21C19 21.5523 18.5523 22 18 22H2C1.44772 22 1 21.5523 1 21V9C1 8.44772 1.44772 8 2 8H4ZM17 10H3V20H17V10ZM9 15.7324C8.4022 15.3866 8 14.7403 8 14C8 12.8954 8.8954 12 10 12C11.1046 12 12 12.8954 12 14C12 14.7403 11.5978 15.3866 11 15.7324V18H9V15.7324ZM6 8H14V7C14 4.79086 12.2091 3 10 3C7.79086 3 6 4.79086 6 7V8Z" fill="#1C1C1C"/>
</svg>
