<svg xmlns="http://www.w3.org/2000/svg" width="31" height="31" viewBox="0 0 31 31" fill="none">
  <path d="M19.1328 31H11.8672C8.52863 31 5.8125 28.2839 5.8125 24.9453V6.05469C5.8125 2.71613 8.52863 0 11.8672 0H19.1328C22.4714 0 25.1875 2.71613 25.1875 6.05469V24.9453C25.1875 28.2839 22.4714 31 19.1328 31ZM11.8672 2.42188C9.86405 2.42188 8.23438 4.05155 8.23438 6.05469V24.9453C8.23438 26.9484 9.86405 28.5781 11.8672 28.5781H19.1328C21.1359 28.5781 22.7656 26.9484 22.7656 24.9453V6.05469C22.7656 4.05155 21.1359 2.42188 19.1328 2.42188H11.8672Z" fill="white"/>
  <path d="M16.7109 26.1562H14.2891C13.6203 26.1562 13.0781 25.6141 13.0781 24.9453C13.0781 24.2765 13.6203 23.7344 14.2891 23.7344H16.7109C17.3797 23.7344 17.9219 24.2765 17.9219 24.9453C17.9219 25.6141 17.3797 26.1562 16.7109 26.1562Z" fill="white"/>
  <path d="M16.7109 7.26562H14.2891C13.6203 7.26562 13.0781 6.72349 13.0781 6.05469C13.0781 5.38589 13.6203 4.84375 14.2891 4.84375H16.7109C17.3797 4.84375 17.9219 5.38589 17.9219 6.05469C17.9219 6.72349 17.3797 7.26562 16.7109 7.26562Z" fill="white"/>
</svg>