<svg width="15" height="15" viewBox="0 0 15 15" fill="none" xmlns="http://www.w3.org/2000/svg">
<path d="M0.266231 13.3178C-0.066696 13.6508 -0.066696 14.1905 0.266231 14.5235C0.599158 14.8564 1.13894 14.8564 1.47187 14.5235L0.266231 13.3178ZM14.5093 1.13296C14.5093 0.662127 14.1276 0.280443 13.6567 0.280444L5.98413 0.280443C5.5133 0.280443 5.13161 0.662126 5.13161 1.13296C5.13161 1.60379 5.5133 1.98547 5.98413 1.98547L12.8042 1.98547L12.8042 8.80558C12.8042 9.27641 13.1859 9.65809 13.6567 9.65809C14.1276 9.65809 14.5093 9.27641 14.5093 8.80558L14.5093 1.13296ZM1.47187 14.5235L14.2596 1.73577L13.0539 0.530139L0.266231 13.3178L1.47187 14.5235Z" fill="#333333"/>
</svg>
