<svg width="91" height="14" viewBox="0 0 91 14" fill="none" xmlns="http://www.w3.org/2000/svg">
<path d="M14.2282 5.02004L9.50829 4.58229L7.63339 0.228634C7.50213 -0.0762114 7.06989 -0.0762114 6.93863 0.228634L5.06376 4.58231L0.343817 5.02004C0.0133278 5.0507 -0.12024 5.46176 0.129107 5.68079L3.69032 8.80929L2.64813 13.4335C2.57516 13.7573 2.92483 14.0113 3.21021 13.8419L7.28603 11.4217L11.3618 13.8419C11.6472 14.0113 11.9969 13.7573 11.9239 13.4335L10.8817 8.80929L14.4429 5.68079C14.6923 5.46176 14.5587 5.0507 14.2282 5.02004Z" fill="#FFDC64"/>
<path d="M7.63339 0.228634C7.50213 -0.0762114 7.06989 -0.0762114 6.93863 0.228634L5.06376 4.58231L0.343817 5.02004C0.0133278 5.0507 -0.12024 5.46176 0.129107 5.68079L3.69032 8.80929L2.64813 13.4335C2.57516 13.7573 2.92483 14.0113 3.21021 13.8419L4.11991 13.3017C4.24582 8.11894 6.65391 4.46918 8.56045 2.38131L7.63339 0.228634Z" fill="#FFC850"/>
<path d="M33.3352 5.02004L28.6153 4.58229L26.7404 0.228634C26.6091 -0.0762114 26.1769 -0.0762114 26.0456 0.228634L24.1708 4.58231L19.4508 5.02004C19.1203 5.0507 18.9868 5.46176 19.2361 5.68079L22.7973 8.80929L21.7551 13.4335C21.6822 13.7573 22.0318 14.0113 22.3172 13.8419L26.393 11.4217L30.4688 13.8419C30.7542 14.0113 31.1039 13.7573 31.0309 13.4335L29.9887 8.80929L33.5499 5.68079C33.7993 5.46176 33.6657 5.0507 33.3352 5.02004Z" fill="#FFDC64"/>
<path d="M26.7404 0.228634C26.6091 -0.0762114 26.1769 -0.0762114 26.0456 0.228634L24.1708 4.58231L19.4508 5.02004C19.1203 5.0507 18.9868 5.46176 19.2361 5.68079L22.7973 8.80929L21.7551 13.4335C21.6822 13.7573 22.0318 14.0113 22.3172 13.8419L23.2269 13.3017C23.3528 8.11894 25.7609 4.46918 27.6674 2.38131L26.7404 0.228634Z" fill="#FFC850"/>
<path d="M52.4422 5.02004L47.7223 4.58229L45.8474 0.228634C45.7161 -0.0762114 45.2839 -0.0762114 45.1526 0.228634L43.2777 4.58231L38.5578 5.02004C38.2273 5.0507 38.0937 5.46176 38.3431 5.68079L41.9043 8.80929L40.8621 13.4335C40.7891 13.7573 41.1388 14.0113 41.4242 13.8419L45.5 11.4217L49.5758 13.8419C49.8612 14.0113 50.2109 13.7573 50.1379 13.4335L49.0957 8.80929L52.6569 5.68079C52.9063 5.46176 52.7727 5.0507 52.4422 5.02004Z" fill="#FFDC64"/>
<path d="M45.8474 0.228634C45.7161 -0.0762114 45.2839 -0.0762114 45.1526 0.228634L43.2777 4.58231L38.5578 5.02004C38.2273 5.0507 38.0937 5.46176 38.3431 5.68079L41.9043 8.80929L40.8621 13.4335C40.7891 13.7573 41.1388 14.0113 41.4242 13.8419L42.3339 13.3017C42.4598 8.11894 44.8679 4.46918 46.7744 2.38131L45.8474 0.228634Z" fill="#FFC850"/>
<path d="M71.5492 5.02004L66.8293 4.58229L64.9544 0.228634C64.8231 -0.0762114 64.3909 -0.0762114 64.2596 0.228634L62.3847 4.58231L57.6648 5.02004C57.3343 5.0507 57.2007 5.46176 57.4501 5.68079L61.0113 8.80929L59.9691 13.4335C59.8961 13.7573 60.2458 14.0113 60.5312 13.8419L64.607 11.4217L68.6828 13.8419C68.9682 14.0113 69.3179 13.7573 69.2449 13.4335L68.2027 8.80929L71.7639 5.68079C72.0133 5.46176 71.8797 5.0507 71.5492 5.02004Z" fill="#FFDC64"/>
<path d="M64.9544 0.228634C64.8231 -0.0762114 64.3909 -0.0762114 64.2596 0.228634L62.3847 4.58231L57.6648 5.02004C57.3343 5.0507 57.2007 5.46176 57.4501 5.68079L61.0113 8.80929L59.9691 13.4335C59.8961 13.7573 60.2458 14.0113 60.5312 13.8419L61.4409 13.3017C61.5668 8.11894 63.9749 4.46918 65.8814 2.38131L64.9544 0.228634Z" fill="#FFC850"/>
<path d="M90.6562 5.02004L85.9362 4.58229L84.0613 0.228634C83.9301 -0.0762114 83.4978 -0.0762114 83.3666 0.228634L81.4917 4.58231L76.7718 5.02004C76.4413 5.0507 76.3077 5.46176 76.5571 5.68079L80.1183 8.80929L79.0761 13.4335C79.0031 13.7573 79.3528 14.0113 79.6382 13.8419L83.714 11.4217L87.7898 13.8419C88.0752 14.0113 88.4249 13.7573 88.3519 13.4335L87.3097 8.80929L90.8709 5.68079C91.1202 5.46176 90.9867 5.0507 90.6562 5.02004Z" fill="#FFDC64"/>
<path d="M84.0613 0.228634C83.9301 -0.0762114 83.4978 -0.0762114 83.3666 0.228634L81.4917 4.58231L76.7718 5.02004C76.4413 5.0507 76.3077 5.46176 76.5571 5.68079L80.1183 8.80929L79.0761 13.4335C79.0031 13.7573 79.3528 14.0113 79.6382 13.8419L80.5479 13.3017C80.6738 8.11894 83.0819 4.46918 84.9884 2.38131L84.0613 0.228634Z" fill="#FFC850"/>
</svg>
