<svg xmlns="http://www.w3.org/2000/svg" width="31" height="31" viewBox="0 0 31 31" fill="none">
  <g clip-path="url(#clip0_231_5455)">
    <path d="M30.5459 28.2754H27.3672V27.3215C28.4023 27.1105 29.1836 26.1932 29.1836 25.0967V5.11621C29.1836 3.86422 28.1651 2.8457 26.9131 2.8457H25.3456L23.663 0.209795C23.5796 0.0790742 23.4353 0 23.2803 0H7.71973C7.56467 0 7.42038 0.0790742 7.33695 0.209795L5.65441 2.8457H4.08691C2.83493 2.8457 1.81641 3.86422 1.81641 5.11621V25.0967C1.81641 26.1931 2.5977 27.1106 3.63281 27.3216V28.2754H0.454102C0.203256 28.2754 0 28.4787 0 28.7295V30.5459C0 30.7967 0.203256 31 0.454102 31H30.5459C30.7967 31 31 30.7967 31 30.5459V28.7295C31 28.4787 30.7967 28.2754 30.5459 28.2754ZM7.96857 0.908203H23.0314L24.2681 2.8457H6.7319L7.96857 0.908203ZM4.08691 26.459C3.33577 26.459 2.72461 25.8479 2.72461 25.0967V5.11621C2.72461 4.36501 3.33577 3.75391 4.08691 3.75391H26.9131C27.6642 3.75391 28.2754 4.36501 28.2754 5.11621V25.0967C28.2754 25.8479 27.6642 26.459 26.9131 26.459H5.90332C5.65247 26.459 5.44922 26.6623 5.44922 26.9131C5.44922 27.1639 5.65247 27.3672 5.90332 27.3672H26.459V28.2754H4.54102V26.9131C4.54102 26.6623 4.33776 26.459 4.08691 26.459ZM30.0918 30.0918H0.908203V29.1836H30.0918V30.0918Z" fill="white"/>
    <path d="M8.17383 25.0967V5.11621C8.17383 4.86543 7.97057 4.66211 7.71973 4.66211H4.08691C3.83607 4.66211 3.63281 4.86543 3.63281 5.11621V25.0967C3.63281 25.3475 3.83607 25.5508 4.08691 25.5508H7.71973C7.97057 25.5508 8.17383 25.3475 8.17383 25.0967ZM7.26562 9.20312V10.1113H4.54102V9.20312H7.26562ZM4.54102 8.29492V7.38672H7.26562V8.29492H4.54102ZM7.26562 11.0195V11.9277H4.54102V11.0195H7.26562ZM7.26562 12.8359V13.7441H4.54102V12.8359H7.26562ZM7.26562 14.6523V15.5605H4.54102V14.6523H7.26562ZM7.26562 16.4688V17.377H4.54102V16.4688H7.26562ZM7.26562 18.2852V19.1934H4.54102V18.2852H7.26562ZM7.26562 20.1016V21.0098H4.54102V20.1016H7.26562ZM7.26562 21.918V22.8262H4.54102V21.918H7.26562ZM7.26562 5.57031V6.47852H4.54102V5.57031H7.26562ZM4.54102 24.6426V23.7344H7.26562V24.6426H4.54102Z" fill="white"/>
    <path d="M23.2803 25.5508H26.9131C27.1639 25.5508 27.3672 25.3475 27.3672 25.0967V5.11621C27.3672 4.86543 27.1639 4.66211 26.9131 4.66211H23.2803C23.0294 4.66211 22.8262 4.86543 22.8262 5.11621V25.0967C22.8262 25.3475 23.0294 25.5508 23.2803 25.5508ZM23.7344 24.6426V23.7344H26.459V24.6426H23.7344ZM26.459 9.20312V10.1113H23.7344V9.20312H26.459ZM23.7344 8.29492V7.38672H26.459V8.29492H23.7344ZM26.459 11.0195V11.9277H23.7344V11.0195H26.459ZM26.459 12.8359V13.7441H23.7344V12.8359H26.459ZM26.459 14.6523V15.5605H23.7344V14.6523H26.459ZM26.459 16.4688V17.377H23.7344V16.4688H26.459ZM26.459 18.2852V19.1934H23.7344V18.2852H26.459ZM26.459 20.1016V21.0098H23.7344V20.1016H26.459ZM26.459 21.918V22.8262H23.7344V21.918H26.459ZM26.459 5.57031V6.47852H23.7344V5.57031H26.459Z" fill="white"/>
    <path d="M9.53613 25.5508H21.4639C21.7147 25.5508 21.918 25.3475 21.918 25.0967V5.11621C21.918 4.86543 21.7147 4.66211 21.4639 4.66211H9.53613C9.28529 4.66211 9.08203 4.86543 9.08203 5.11621V25.0967C9.08203 25.3475 9.28529 25.5508 9.53613 25.5508ZM9.99023 24.6426V23.7344H21.0098V24.6426H9.99023ZM21.0098 9.20312V10.1113H9.99023V9.20312H21.0098ZM9.99023 8.29492V7.38672H21.0098V8.29492H9.99023ZM21.0098 11.0195V11.9277H9.99023V11.0195H21.0098ZM21.0098 12.8359V13.7441H9.99023V12.8359H21.0098ZM21.0098 14.6523V15.5605H9.99023V14.6523H21.0098ZM21.0098 16.4688V17.377H9.99023V16.4688H21.0098ZM21.0098 18.2852V19.1934H9.99023V18.2852H21.0098ZM21.0098 20.1016V21.0098H9.99023V20.1016H21.0098ZM21.0098 21.918V22.8262H9.99023V21.918H21.0098ZM21.0098 5.57031V6.47852H9.99023V5.57031H21.0098Z" fill="white"/>
  </g>
  <defs>
    <clipPath id="clip0_231_5455">
      <rect width="31" height="31" fill="white"/>
    </clipPath>
  </defs>
</svg>