<svg width="24" height="24" viewBox="0 0 24 24" fill="none" xmlns="http://www.w3.org/2000/svg">
<path d="M19.4979 18.6365L18.9974 17.8007C18.0972 16.3165 16.8549 14.6131 15.2254 14.6131C14.9235 14.6131 14.6245 14.6738 14.3286 14.7968L13.454 15.1719C13.3741 15.205 13.2965 15.2426 13.2143 15.2826C12.9905 15.3915 12.7366 15.5148 12.4755 15.5148C11.8315 15.5148 11.0852 14.6766 10.3746 13.1548C9.67718 11.6611 9.72167 10.8781 9.88176 10.4841C10.0584 10.0494 10.4692 9.86351 10.9105 9.69649C10.9719 9.67322 11.0273 9.65211 11.0812 9.62992L11.9669 9.25701C14.2742 8.29212 13.4159 4.92017 13.1344 3.81467L12.8957 2.86417C12.6917 2.0808 12.1507 0 10.3562 0C10.024 0 9.6696 0.0773953 9.30319 0.230129C9.06278 0.325601 5.75438 1.67607 4.55578 4.04858C3.12326 6.87259 3.38814 10.6595 5.34229 15.3019C7.28182 19.95 9.7969 22.7931 12.8177 23.7519C13.3359 23.9165 13.9215 23.9999 14.5584 23.9999H14.5587C16.6434 23.9999 18.7012 23.1129 18.8683 23.0393C19.587 22.7348 20.0516 22.2721 20.249 21.6639C20.5837 20.6324 20.0223 19.5023 19.4979 18.6365ZM18.7045 21.1627C18.6586 21.304 18.499 21.4331 18.2306 21.5461C18.2262 21.548 18.2207 21.5503 18.2162 21.5524C18.1976 21.5606 16.3349 22.3764 14.5583 22.3763C14.0883 22.3763 13.668 22.3185 13.309 22.2044C10.7641 21.3966 8.58791 18.864 6.83964 14.6744C5.07839 10.4899 4.79695 7.16204 6.00431 4.78194C6.94183 2.9263 9.87689 1.74913 9.90568 1.73788C9.91153 1.73549 9.91727 1.73322 9.923 1.73084C10.0901 1.6607 10.2399 1.62368 10.3562 1.62368C10.714 1.62368 11.0396 2.17854 11.3225 3.26608L11.5601 4.21258C12.0728 6.22593 11.9947 7.48526 11.3384 7.75977L10.457 8.13105C10.4219 8.14555 10.3809 8.16082 10.3356 8.17803C9.84875 8.36237 8.83557 8.74577 8.37737 9.87282C7.9616 10.8955 8.13371 12.1938 8.90301 13.842C9.93913 16.0602 11.1076 17.1386 12.4753 17.1386C13.1101 17.1386 13.6196 16.8909 13.924 16.743C13.98 16.7158 14.0301 16.6908 14.0841 16.6685L14.96 16.2928C15.0504 16.2552 15.1372 16.2369 15.2253 16.2369C15.6469 16.2369 16.4029 16.6544 17.6068 18.6389L18.107 19.4742C18.7234 20.492 18.7721 20.9542 18.7045 21.1627Z" fill="black"/>
</svg>
